<svg width="18" height="18" viewBox="0 0 18 18" fill="none"
  xmlns="http://www.w3.org/2000/svg">
  <path fill-rule="evenodd" clip-rule="evenodd" d="M3.6416 10.3784C3.95675 10.4068 4.24355 10.4808 4.49927 10.6033L4.68896 10.7058C4.75102 10.7437 4.81209 10.7853 4.87207 10.8303C4.99897 10.9227 5.10899 11.0375 5.20459 11.1724C5.30765 11.311 5.38613 11.4733 5.44116 11.6558L5.47998 11.8008C5.51306 11.9504 5.52903 12.1125 5.52905 12.2856C5.52905 12.6011 5.47828 12.8867 5.37305 13.1382L5.37378 13.1389C5.28434 13.3557 5.15787 13.5441 4.99512 13.7014L4.92334 13.7666C4.52343 14.1103 3.97203 14.269 3.2959 14.269H2.95166V15.4292C2.95165 15.614 2.93964 15.7845 2.91577 15.9397C2.8883 16.1182 2.81511 16.2739 2.68652 16.3909L2.68579 16.3901C2.54556 16.5202 2.34254 16.5645 2.12329 16.5645C1.90696 16.5644 1.70685 16.5194 1.56738 16.3887L1.56519 16.3865C1.44288 16.2679 1.37145 16.1152 1.34399 15.9404L1.34326 15.936C1.32257 15.7822 1.31251 15.613 1.3125 15.4292V11.5042C1.31251 11.3204 1.3225 11.1524 1.34326 11.001L1.34399 10.9973L1.37256 10.8691C1.40991 10.7455 1.47366 10.6362 1.56738 10.5483C1.70673 10.4148 1.90677 10.3689 2.12329 10.3689H3.50464L3.6416 10.3784ZM2.95166 12.9053H3.31787C3.43267 12.8984 3.53116 12.8714 3.61597 12.8269C3.69435 12.7857 3.75967 12.7244 3.81226 12.6387L3.84448 12.5728C3.8728 12.5 3.88989 12.4058 3.88989 12.2856C3.88984 12.1374 3.85971 12.0411 3.81812 11.9795L3.81519 11.9744C3.76419 11.8937 3.70357 11.8366 3.63428 11.7979C3.56584 11.7635 3.47692 11.7377 3.36328 11.7253H2.95166V12.9053Z" fill="currentColor"/>
  <path d="M9.85181 10.3689C9.96017 10.369 10.0701 10.3945 10.1792 10.4392L10.2876 10.4897L10.2935 10.4927L10.2993 10.4963C10.4209 10.5712 10.5226 10.6619 10.5879 10.7725C10.6503 10.8716 10.6882 10.9809 10.6882 11.0969C10.6882 11.1892 10.6526 11.2993 10.6077 11.4089L10.6069 11.4082C10.5828 11.4685 10.5524 11.5379 10.5154 11.6147C10.4774 11.6937 10.4326 11.7792 10.3813 11.8704L9.1582 14.0391V15.4373C9.1582 15.6164 9.14303 15.7853 9.11279 15.9426C9.07918 16.1138 9.00547 16.2635 8.88647 16.3799L8.88721 16.3806C8.75142 16.5164 8.5562 16.5644 8.34668 16.5645C8.13595 16.5644 7.94219 16.5154 7.80249 16.3843L7.80103 16.3828C7.68055 16.2661 7.60635 16.1157 7.57251 15.9434C7.54226 15.786 7.52783 15.6164 7.52783 15.4373V14.0398L6.12085 11.5283L6.11938 11.5261C6.0459 11.3891 6.00587 11.2453 6.00586 11.0969C6.00589 10.986 6.03681 10.8798 6.09155 10.7812L6.09302 10.7791L6.15015 10.6963C6.21492 10.6176 6.30071 10.5509 6.39771 10.4941L6.4043 10.4905L6.5127 10.4392C6.6213 10.3943 6.73162 10.369 6.84155 10.3689C7.06446 10.369 7.25232 10.4649 7.39307 10.6399L7.48096 10.752C7.5635 10.8656 7.6337 10.9873 7.69263 11.116L8.34668 12.4878L9.00073 11.116C9.07902 10.945 9.177 10.7867 9.29443 10.6421L9.29517 10.6414L9.35083 10.5791C9.48615 10.443 9.65571 10.3689 9.85181 10.3689Z" fill="currentColor"/>
  <path fill-rule="evenodd" clip-rule="evenodd" d="M10.574 1.50366C10.7457 1.52068 10.9072 1.59662 11.0303 1.71973L14.7803 5.46973C14.9209 5.61038 15 5.80109 15 6V14.25C15 14.8467 14.7628 15.4189 14.3408 15.8408C13.9189 16.2628 13.3467 16.5 12.75 16.5H12C11.5858 16.5 11.25 16.1642 11.25 15.75C11.25 15.3358 11.5858 15 12 15H12.75C12.9489 15 13.1396 14.9209 13.2803 14.7803C13.4209 14.6396 13.5 14.4489 13.5 14.25V6.75H11.25C10.8522 6.75 10.4708 6.59185 10.1895 6.31055C9.90815 6.02924 9.75 5.64783 9.75 5.25V3H5.25C5.05109 3 4.86038 3.07907 4.71973 3.21973C4.57907 3.36038 4.5 3.55109 4.5 3.75V9C4.5 9.41421 4.16421 9.75 3.75 9.75C3.33579 9.75 3 9.41421 3 9V3.75C3 3.15326 3.23722 2.58114 3.65918 2.15918C4.08114 1.73722 4.65326 1.5 5.25 1.5H10.5L10.574 1.50366ZM11.25 5.25H12.4395L11.25 4.06055V5.25Z" fill="currentColor"/>
</svg>
